<?xml version="1.0" standalone="no"?>
<!DOCTYPE svg PUBLIC "-//W3C//DTD SVG 20010904//EN"
 "http://www.w3.org/TR/2001/REC-SVG-20010904/DTD/svg10.dtd">
<svg version="1.0" xmlns="http://www.w3.org/2000/svg"
 width="652.000000pt" height="652.000000pt" viewBox="0 0 652.000000 652.000000"
 preserveAspectRatio="xMidYMid meet">
<metadata>
Created by potrace 1.11, written by Peter Selinger 2001-2013
</metadata>
<g transform="translate(0.000000,652.000000) scale(0.100000,-0.100000)"
fill="#000000" stroke="none">
<path d="M3366 6513 c-1 -1 -67 -3 -146 -4 -80 0 -178 -7 -217 -13 -40 -7 -75
-11 -77 -9 -6 6 -118 -27 -143 -43 -12 -7 -37 -16 -55 -18 -19 -2 -65 -20
-104 -39 -38 -19 -94 -40 -124 -46 -88 -19 -242 -69 -278 -91 -19 -11 -56 -29
-84 -40 -65 -25 -172 -98 -254 -174 -37 -33 -74 -65 -83 -70 -22 -12 -115
-110 -161 -171 -21 -27 -51 -62 -67 -77 -72 -68 -132 -137 -154 -179 -8 -14
-38 -59 -67 -100 -62 -87 -162 -238 -162 -245 0 -2 -18 -34 -40 -70 -22 -36
-40 -69 -40 -74 0 -4 -15 -36 -34 -71 -24 -46 -44 -113 -71 -234 -32 -143 -38
-187 -38 -280 1 -75 6 -124 17 -154 9 -24 13 -47 10 -52 -3 -5 1 -31 9 -57 16
-48 24 -85 32 -137 8 -46 15 -65 51 -138 19 -37 34 -75 34 -85 0 -10 7 -28 16
-41 9 -13 25 -44 35 -70 10 -25 18 -41 19 -34 0 6 -4 23 -10 37 -9 26 -9 26
15 10 14 -9 22 -20 19 -26 -7 -11 71 -88 114 -110 17 -9 32 -23 32 -30 0 -10
-2 -10 -9 1 -12 19 -23 -3 -67 -136 -20 -59 -40 -116 -45 -125 -19 -36 -23
-97 -20 -360 1 -96 0 -95 171 -141 l125 -35 20 -48 c37 -90 116 -183 173 -205
13 -5 44 -11 69 -14 68 -7 81 -13 87 -43 3 -15 4 -183 2 -374 l-4 -348 -25
-43 c-14 -24 -33 -49 -41 -56 -8 -7 -22 -36 -32 -64 -36 -111 -85 -166 -116
-129 -21 25 -68 100 -68 109 -3 59 -160 76 -226 24 -87 -69 -148 -211 -141
-328 3 -46 9 -70 20 -78 10 -7 17 -17 17 -23 0 -21 41 -86 79 -127 46 -48 71
-103 123 -260 58 -175 126 -306 228 -432 132 -163 209 -228 305 -257 33 -10
76 -26 95 -36 19 -10 62 -23 95 -30 76 -16 504 -20 524 -5 11 8 13 7 7 -4 -8
-13 5 -12 96 4 9 2 47 5 85 6 64 2 206 35 388 90 86 26 166 69 286 153 42 29
100 61 130 71 67 22 156 63 182 84 10 9 40 38 66 66 131 140 162 161 311 210
47 15 101 36 120 46 19 11 41 19 49 19 42 0 167 114 203 185 11 22 27 48 35
57 11 12 14 43 14 130 -1 62 -4 124 -7 138 -3 14 -8 84 -11 155 -5 130 -5 130
30 225 19 52 48 127 65 165 16 39 35 95 41 125 16 70 40 122 85 185 42 60 68
111 91 185 10 30 24 62 32 71 7 9 27 53 43 98 24 65 31 104 36 189 9 182 22
237 96 386 29 58 42 102 53 174 14 93 48 183 86 225 19 21 72 126 92 182 8 22
22 58 30 80 43 114 77 238 82 300 3 39 8 84 11 100 3 17 7 44 10 60 7 52 16
264 18 424 1 136 -1 162 -21 218 -12 35 -20 63 -18 63 3 0 -7 26 -21 58 -14
31 -41 97 -60 147 -19 49 -38 94 -43 100 -4 5 -13 29 -20 53 -6 23 -23 58 -36
78 -13 19 -29 52 -35 72 -33 103 -97 262 -121 297 -54 80 -113 129 -239 197
-145 80 -216 126 -227 149 -19 40 -70 81 -233 191 -192 130 -238 155 -370 208
-58 24 -127 52 -155 63 -46 19 -72 20 -318 21 -148 1 -270 0 -271 -1z m-276
-37 c0 -2 -15 -6 -34 -8 -19 -2 -32 0 -30 4 5 8 64 12 64 4z m-240 -30 c0 -2
-7 -6 -15 -10 -8 -3 -15 -1 -15 4 0 6 7 10 15 10 8 0 15 -2 15 -4z m-405 -146
c-27 -12 -43 -12 -25 0 8 5 22 9 30 9 10 0 8 -3 -5 -9z m-65 -20 c-8 -5 -19
-10 -25 -10 -5 0 -3 5 5 10 8 5 20 10 25 10 6 0 3 -5 -5 -10z m-50 -17 c-8 -4
-34 -14 -57 -24 -24 -10 -43 -16 -43 -13 0 8 83 44 100 43 13 -1 13 -1 0 -6z
m-219 -103 c-30 -17 -56 -29 -58 -27 -4 5 89 56 102 57 6 0 -14 -14 -44 -30z
m2556 -92 c21 -24 37 -48 31 -48 -2 0 -19 16 -38 35 -19 19 -29 35 -24 35 6 0
20 -10 31 -22z m-2734 -33 c-10 -13 -22 -25 -27 -25 -5 0 1 11 14 25 30 32 36
32 13 0z m-128 -115 c-3 -5 -12 -10 -18 -10 -7 0 -6 4 3 10 19 12 23 12 15 0z
m3384 -315 c0 -5 -6 1 -14 15 -8 14 -14 30 -14 35 0 6 6 -1 14 -15 8 -14 14
-29 14 -35z m21 -50 c0 -5 -5 -3 -10 5 -5 8 -10 20 -10 25 0 6 5 3 10 -5 5 -8
10 -19 10 -25z m-2618 -200 c0 -42 -3 -79 -6 -83 -3 -3 -6 34 -6 83 0 49 3 86
6 82 4 -3 6 -40 6 -82z m468 12 c0 -2 -10 -12 -22 -23 l-23 -19 19 23 c18 21
26 27 26 19z m-47 -62 c-3 -9 -8 -14 -10 -11 -3 3 -2 9 2 15 9 16 15 13 8 -4z
m837 -615 c-6 -11 -12 -20 -14 -20 -2 0 -2 9 1 20 3 11 9 20 15 20 5 0 4 -9
-2 -20z m-943 -97 c-3 -10 -5 -4 -5 12 0 17 2 24 5 18 2 -7 2 -21 0 -30z
m-1895 -13 c-2 -22 -8 -40 -13 -40 -5 0 -7 12 -3 28 14 64 21 70 16 12z m-6
-65 c-4 -24 -16 -30 -16 -7 0 12 4 22 9 22 5 0 8 -7 7 -15z m-3 -90 c0 -66 -9
-65 -12 2 -1 32 1 54 5 51 4 -4 7 -28 7 -53z m1967 -75 c6 -11 8 -20 6 -20 -3
0 -10 9 -16 20 -6 11 -8 20 -6 20 3 0 10 -9 16 -20z m-219 -227 c13 -16 12
-17 -3 -4 -17 13 -22 21 -14 21 2 0 10 -8 17 -17z m2598 -579 c-21 -45 -59
-105 -83 -129 -5 -5 3 10 18 35 14 25 39 68 53 97 33 65 42 62 12 -3z m-4083
-279 c-8 -27 -15 -42 -15 -31 -1 23 22 103 26 90 1 -5 -4 -31 -11 -59z"/>
</g>
</svg>
